<svg xmlns="http://www.w3.org/2000/svg" viewBox="-75 -65 150 150">
  <style>
    @import url("https://fonts.googleapis.com/css2?family=Inter:opsz,wght@14..32,400..700&display=swap");
  </style>
  <linearGradient
    id="gradient"
    x1="-50"
    y1="10"
    x2="50"
    y2="10"
    gradientUnits="userSpaceOnUse"
  >
    <stop offset="0%" stop-color="oklch(65% 0.2 240 / 0)" />
    <stop offset="50%" stop-color="oklch(65% 0.2 240 / 0.15)" />
    <stop offset="100%" stop-color="oklch(65% 0.2 240 / 0)" />
  </linearGradient>
  <path
    fill="url(#gradient)"
    d="
      M -50 15
      C -20 15 -20 -30 0 -30
      C 20 -30 20 15 50 15
      L 50 25
      L 5 25
      A 13 13 0 1 0 -5 25
      L -50 25
      z
    "
  />
  <path
    fill="none"
    stroke="oklch(25% 0 300)"
    stroke-width="4"
    d="
      M -50 15
      C -20 15 -20 -30 0 -30
      M 50 15
      C 20 15 20 -30 0 -30
    "
  />
  <g fill="none" stroke-width="2">
    <path
      stroke="oklch(65% 0.2 300)"
      stroke-dasharray="1 1 1 1 16"
      pathLength="20"
      d="M -50 25 L -5 25"
    />
    <path stroke="oklch(65% 0.2 260)" d="M -5 25 A 13 13 0 1 1 5 25" />
    <path
      stroke="oklch(65% 0.2 200)"
      stroke-dasharray="1 1 1 1 16"
      pathLength="20"
      d="M 50 25 L 5 25"
    />
  </g>
  <g fill="oklch(65% 0.2 300)">
    <rect
      x="-37.5"
      y="25"
      width="8"
      height="8"
      rx="2"
      transform="translate(-4, -4)"
    />
    <rect
      x="-22.5"
      y="25"
      width="8"
      height="8"
      rx="2"
      transform="translate(-4, -4)"
    />
    <rect
      x="-7.5"
      y="25"
      width="8"
      height="8"
      rx="2"
      transform="translate(-4, -4)"
    />
  </g>
  <g fill="oklch(65% 0.2 260)">
    <rect
      x="-12"
      y="10"
      width="8"
      height="8"
      rx="2"
      transform="translate(-4, -4)"
    />
    <rect
      x="0"
      y="0"
      width="8"
      height="8"
      rx="2"
      transform="translate(-4, -4)"
    />
    <rect
      x="12"
      y="10"
      width="8"
      height="8"
      rx="2"
      transform="translate(-4, -4)"
    />
  </g>
  <g fill="oklch(65% 0.2 200)">
    <rect
      x="37.5"
      y="25"
      width="8"
      height="8"
      rx="2"
      transform="translate(-4, -4)"
    />
    <rect
      x="22.5"
      y="25"
      width="8"
      height="8"
      rx="2"
      transform="translate(-4, -4)"
    />
    <rect
      x="7.5"
      y="25"
      width="8"
      height="8"
      rx="2"
      transform="translate(-4, -4)"
    />
  </g>
  <text
    x="0"
    y="60"
    text-anchor="middle"
    style="font-family: &quot;Inter&quot;; font-size: 22px; letter-spacing: 3px"
  >
    <tspan>in</tspan><tspan style="font-weight: 700">STR</tspan><tspan>bility</tspan>
  </text>
</svg>
